<svg version="1.1" id="Layer_1" xmlns="http://www.w3.org/2000/svg" x="0" y="0" viewBox="0 0 689.5 142" style="enable-background:new 0 0 689.5 142" xml:space="preserve"><style>.st0{fill:#fff}</style><path id="Shape" class="st0" d="M189.1 86.2c4.4-3.4 5-1.5 8.9 2.4 1.9 2 6.8 5.3 3.7 8.2-13.9 12.3-35.1 11-47.4-2.9-.2-.2-.4-.5-.6-.7-5.6-6.7-8.5-15.2-8.2-23.9.2-9.2 4.2-17.9 11-24.1 6.4-5.4 14.5-8.2 22.9-7.9 6.9.1 13.7 2.4 19.3 6.4 4.5 3.4 2.5 5.6-1.1 9.2l-2.4 2.4c-1.8 1.8-3 3.1-5.4 1.5-4.5-3.4-10.3-4.7-15.8-3.5C156.4 58 157.4 90 179 90c3.7-.2 7.2-1.5 10.1-3.8zm489.3 17.6c-3 0-5.4-2.5-5.4-5.5v-71c0-3 2.4-5.5 5.4-5.5h5.7c3 0 5.4 2.5 5.4 5.5v71.1c0 3-2.4 5.5-5.4 5.5l-5.7-.1zm-30.2-8c-5.4 5.9-13.1 9.3-21.1 9.2-18 0-26.5-15.2-26.5-32.1V44c0-3 2.4-5.5 5.4-5.5h5.7c3 0 5.4 2.5 5.4 5.5v28.7c-1 8.1 4.6 15.6 12.7 16.8.7.1 1.4.1 2.1.1 9.1-.4 16.1-7.9 15.8-17V44c0-3 2.4-5.5 5.4-5.5h5.7c3 0 5.4 2.5 5.4 5.5v54.5c0 2.9-2.3 5.4-5.3 5.4h-4.8c-2.9-.1-5.2-2.5-5.3-5.4v-2.8l-.6.1zm-68.9-57h11.2c3 .1 5.3 2.5 5.3 5.5v3.8c0 2.9-2.3 5.3-5.3 5.4h-11.2v44.9c0 3-2.4 5.5-5.4 5.5h-5.7c-3 0-5.4-2.5-5.4-5.5v-62c-1.1-13 8.2-24.3 20.8-25.5h9c3 .1 5.3 2.5 5.3 5.5v3.4c.1 3-2.3 5.5-5.3 5.5h-4.3c-6.4 0-9.1 5.1-9.1 11.1l.1 2.4zm-39.9 0h12.2c2.9 0 5.3 2.4 5.3 5.4v3.7c0 2.9-2.3 5.4-5.3 5.4h-12.2v27.3c0 5.3 2.5 8.4 7.7 8.4h2.4c2.9 0 5.3 2.4 5.3 5.4v3.7c0 2.9-2.3 5.4-5.2 5.4h-7.4c-13.2-.8-19.2-9.6-19.2-22.8V27.5c0-2.9 2.3-5.4 5.3-5.4h5.6c2.9 0 5.3 2.4 5.3 5.4l.2 11.3zm-177 0h12.2c2.9 0 5.3 2.5 5.3 5.4v3.7c0 2.9-2.4 5.3-5.3 5.3h-11.9v27.4c0 5.3 2.5 8.4 7.7 8.4h2.5c2.9 0 5.3 2.4 5.3 5.4v3.7c0 2.9-2.3 5.4-5.2 5.4h-3.7c-14.5 0-22.8-6.3-22.8-23v-53c0-2.9 2.3-5.4 5.3-5.4h5.6c2.9 0 5.3 2.4 5.3 5.4v11.3h-.3zm-71.8 7.8c5.3-5.7 12.6-9 20.4-9.2 17.8 0 27.3 15 27.3 32.1v28.8c0 3-2.4 5.5-5.4 5.5h-5.7c-3 0-5.4-2.5-5.4-5.5V69.7c1.1-8.1-4.6-15.6-12.7-16.8-.7-.1-1.4-.1-2.1-.1-9 .3-16 7.9-15.7 16.9v28.6c0 2.9-2.3 5.4-5.3 5.4h-5.6c-2.9 0-5.3-2.4-5.3-5.4V43.9c0-2.9 2.3-5.4 5.2-5.4h4.8c2.9.1 5.2 2.5 5.3 5.4l.2 2.7zm177.1 0c5.3-5.7 12.6-9 20.4-9.2 17.8 0 27.3 15 27.3 32.1v28.8c0 3-2.4 5.5-5.4 5.5h-5.7c-3 0-5.4-2.5-5.4-5.5V69.7c1.1-8.1-4.6-15.6-12.7-16.8-.7-.1-1.4-.1-2.1-.1-9 .3-16 7.9-15.7 16.9v28.6c0 2.9-2.3 5.4-5.3 5.4h-5.7c-2.9 0-5.3-2.4-5.3-5.4V43.9c0-2.9 2.3-5.4 5.3-5.4h4.8c2.9.1 5.2 2.5 5.3 5.4v2.9l.2-.2zm-231.5-9.4c-17.7-.6-32.5 13.5-33.1 31.7v2.4c0 18.8 14.9 34 33.2 34s33.2-15.3 33.2-34c.6-18.2-13.4-33.5-31.2-34.1h-2.1zm161 40.2c1.9 8.3 9.8 13.9 18.3 12.8 4.1-.1 8.2-1 12-2.8l1.8-.9c2-1.2 3.8-1.8 5.6 0l2.9 3c.9.9 1.8 1.9 2.6 2.9 2.7 3.4.8 4.4-2.2 6.4-6.8 4.6-14.8 7-23 7-21.1 0-35.1-13.1-35.1-34.9-.8-18 12.8-33.4 30.5-34.2h3.6c20.4 0 32.2 12.3 32.5 33.3 0 5.7.3 7.6-5.5 7.6l-44-.2zM236.7 52.5c9.7.4 17.3 8.5 17 18.2v.4c.9 9.3-5.8 17.7-15.2 18.8-9.4.7-17.5-6.3-18.3-15.6-.1-1-.1-2.1 0-3.1-.9-9.4 6-17.7 15.4-18.6h1.3l-.2-.1zM398 63.2h32.8c-1.2-7.6-8.3-12.8-15.9-11.7-7.6-.3-14.5 4.4-16.9 11.7z"/><path class="st0" d="M45.6 17.8c5 5 6.9 12.3 5 19.1 6.2-3.7 13.2-5.6 20.4-5.6h.2c10.5 0 20.7 4.3 28.1 11.8 5.9 6.2 15.8 6.5 22.1.5 6.2-5.9 6.5-15.8.5-22.1l-.5-.5C108.2 7.6 90.1 0 71.3 0H71C56.9 0 43.1 4.2 31.4 12h.4c5.2 0 10.2 2.1 13.8 5.8zM110 94.7c-4.1 0-8.1 1.6-11 4.5-7.4 7.4-17.5 11.6-28 11.6h-.2c-7.2 0-14.3-2-20.4-5.7.5 1.7.7 3.5.7 5.2 0 10.8-8.7 19.5-19.5 19.5h-.5c11.7 8 25.5 12.2 39.6 12.2h.3c18.7 0 36.7-7.4 50-20.6 6.1-6.1 6.2-16 .1-22.1-2.9-2.9-6.9-4.6-11.1-4.6zm-92.2 1.7c3.7-3.7 8.6-5.7 13.8-5.7 1.8 0 3.6.2 5.3.7-7.6-12.6-7.6-28.4.1-41-10.4 2.9-21.2-3.3-24-13.7-.5-1.7-.7-3.4-.7-5.2V31C-4 55-4.1 86.5 12.1 110.6v-.4c0-5.1 2.1-10.1 5.7-13.8z"/><path class="st0" d="M31.8 15.5c-4.4 0-7.5 1.8-11.3 5.6-3.6 3.6-4.7 6.7-4.7 10.4 0 8.9 7.2 16 16.1 16s16-7.2 16-16.1c0-8.7-7.2-15.9-16.1-15.9zm-16.2 94.8c0 4.4 1.8 7.6 5.6 11.3 3.6 3.6 6.7 4.7 10.4 4.7 8.8 0 16-7.2 15.9-16 0-8.8-7.2-16-16-15.9-8.8-.1-15.9 7.1-15.9 15.9z"/></svg>