<svg xmlns="http://www.w3.org/2000/svg" width="125" height="30" fill="none"><path d="M 35.625 15.138 L 35.625 15.11 C 35.591 13.494 36.201 11.934 37.315 10.79 C 38.428 9.646 39.949 9.016 41.526 9.046 C 43.201 8.982 44.825 9.646 45.997 10.875 L 44.707 12.404 C 43.875 11.499 42.723 10.973 41.509 10.944 C 39.336 10.944 37.736 12.785 37.736 15.081 L 37.736 15.115 C 37.736 17.423 39.319 19.263 41.509 19.263 C 42.76 19.25 43.949 18.705 44.792 17.758 L 46.081 19.096 C 44.917 20.466 43.214 21.229 41.441 21.173 C 39.881 21.191 38.38 20.558 37.283 19.42 C 36.187 18.283 35.588 16.737 35.625 15.138 Z M 49.555 15.138 L 49.555 15.11 C 49.645 11.8 52.284 9.162 55.516 9.153 C 58.747 9.143 61.401 11.766 61.509 15.075 L 61.509 15.11 C 61.418 18.419 58.777 21.056 55.546 21.064 C 52.314 21.071 49.662 18.447 49.555 15.138 Z M 59.403 15.138 L 59.403 15.11 C 59.438 14.026 59.046 12.973 58.315 12.188 C 57.584 11.404 56.576 10.953 55.518 10.938 C 54.464 10.941 53.457 11.383 52.729 12.164 C 52.001 12.945 51.615 13.996 51.661 15.075 L 51.661 15.11 C 51.623 16.193 52.015 17.246 52.749 18.028 C 53.482 18.81 54.494 19.254 55.552 19.258 C 56.604 19.26 57.611 18.821 58.338 18.043 C 59.066 17.265 59.451 16.215 59.403 15.138 Z M 66.149 9.248 L 71.244 9.248 C 72.449 9.177 73.633 9.591 74.544 10.402 C 75.176 11.088 75.517 12.003 75.49 12.946 L 75.49 12.981 C 75.543 14.681 74.399 16.175 72.776 16.529 L 75.867 20.965 L 73.48 20.965 L 70.664 16.881 L 68.17 16.881 L 68.17 20.965 L 66.166 20.965 Z M 71.092 15.058 C 72.534 15.058 73.446 14.285 73.446 13.096 L 73.446 13.067 C 73.446 11.81 72.568 11.123 71.081 11.123 L 68.17 11.123 L 68.17 15.058 Z M 79.386 19.258 L 80.597 17.787 C 81.565 18.752 82.855 19.303 84.206 19.327 C 85.45 19.327 86.233 18.75 86.233 17.85 C 86.233 17.013 85.777 16.558 83.654 16.056 C 81.216 15.479 79.848 14.717 79.848 12.56 L 79.848 12.525 C 79.848 10.517 81.481 9.127 83.75 9.127 C 85.247 9.089 86.708 9.593 87.877 10.552 L 86.796 12.11 C 85.919 11.371 84.829 10.947 83.694 10.904 C 82.517 10.904 81.83 11.527 81.83 12.294 L 81.83 12.329 C 81.83 13.235 82.354 13.633 84.561 14.169 C 86.976 14.746 88.221 15.658 88.221 17.602 L 88.221 17.637 C 88.221 19.829 86.532 21.133 84.133 21.133 C 82.378 21.133 80.686 20.465 79.386 19.258 Z M 96.616 9.167 L 98.48 9.167 L 103.508 20.965 L 101.391 20.965 L 100.231 18.138 L 94.825 18.138 L 93.649 20.965 L 91.593 20.965 Z M 99.493 16.31 L 97.517 11.625 L 95.557 16.31 Z M 107.787 9.248 L 109.792 9.248 L 109.792 20.965 L 107.787 20.965 Z M 115.051 9.248 L 120.146 9.248 C 121.351 9.177 122.535 9.591 123.446 10.402 C 124.074 11.083 124.414 11.992 124.392 12.929 L 124.392 12.981 C 124.443 14.686 123.291 16.182 121.661 16.529 L 124.747 20.965 L 122.359 20.965 L 119.544 16.881 L 117.027 16.881 L 117.027 20.965 L 115.017 20.965 Z M 120 15.058 C 121.436 15.058 122.354 14.285 122.354 13.096 L 122.354 13.067 C 122.354 11.81 121.47 11.123 119.983 11.123 L 117.061 11.123 L 117.061 15.058 Z M 16.633 0 C 16.633 0 19.065 5.06 18.62 7.171 C 18.62 7.171 24.966 9.271 25.67 12.738 C 25.67 12.738 29.144 8.054 16.633 0 Z M 14.189 7.592 C 14.742 8.959 15.165 10.377 15.45 11.827 L 11.864 10.437 C 12.196 8.187 10.062 4.765 10.062 4.765 Z M 7.77 11.077 C 8.221 12.26 8.588 13.475 8.868 14.712 L 5.602 13.881 C 5.94 11.631 3.868 8.908 3.868 8.908 Z" fill="rgb(255, 255, 255)"></path><path d="M 14.876 5.665 C 14.876 5.665 29.426 16.137 30.383 20.198 C 31.109 23.256 29.003 26.077 29.003 26.077 C 29.003 26.077 27.877 18.104 0 30.213 C 2.881 27.03 4.313 22.746 3.941 18.421 C 3.783 16.644 3.32 14.91 2.573 13.298 L 9.105 16.852 C 9.105 16.956 9.105 17.06 9.133 17.169 C 9.379 19.785 9.189 22.425 8.57 24.975 C 9.958 21.995 10.532 18.686 10.231 15.398 C 10.064 13.39 9.577 11.423 8.789 9.577 L 15.771 14.348 C 15.8 14.585 15.816 14.821 15.839 15.063 C 16.116 17.948 15.86 20.86 15.084 23.648 C 18.062 18.022 17.983 11.217 14.876 5.665 Z" fill="rgb(255, 255, 255)"></path></svg>
