<svg xmlns="http://www.w3.org/2000/svg" width="125" height="19" fill="none"><path d="M 23.213 16.977 L 12.05 11.671 L 12.05 0 Z M 24.1 19 L 12.05 13.979 L 12.05 19 Z" fill="rgb(255,255,255)"></path><path d="M 0.887 16.977 L 12.05 0 L 12.05 11.671 L 0.887 16.977 M 0 19 L 12.05 19 L 12.05 13.979 L 0 19 M 25.075 15.521 C 25.513 15.521 25.875 15.866 25.875 16.298 C 25.875 16.73 25.525 17.088 25.088 17.088 C 24.65 17.088 24.288 16.742 24.288 16.31 C 24.288 15.866 24.638 15.521 25.075 15.521 Z M 25.075 16.964 C 25.45 16.964 25.75 16.668 25.75 16.298 C 25.75 15.928 25.45 15.632 25.075 15.632 C 24.7 15.632 24.4 15.928 24.4 16.298 C 24.4 16.668 24.7 16.964 25.075 16.964 Z M 24.9 16.755 L 24.788 16.755 L 24.788 15.854 L 25.138 15.854 C 25.35 15.854 25.425 15.94 25.425 16.101 C 25.438 16.236 25.325 16.347 25.2 16.36 L 25.475 16.755 L 25.35 16.755 L 25.075 16.36 L 24.913 16.36 Z M 24.9 16.249 L 25.05 16.249 C 25.175 16.249 25.313 16.236 25.313 16.088 C 25.313 15.977 25.2 15.94 25.113 15.94 L 24.913 15.94 Z M 33.513 16.977 L 38.925 16.977 C 44.5 16.977 47.813 14.127 47.813 9.401 C 47.813 4.676 44.5 1.838 38.925 1.838 L 33.513 1.838 Z M 36.938 4.466 L 38.925 4.466 C 42.538 4.466 44.35 6.231 44.35 9.401 C 44.35 12.572 42.538 14.336 38.925 14.336 L 36.938 14.336 Z M 59.462 10.413 L 65.975 10.413 L 65.975 7.785 L 59.462 7.785 L 59.462 4.466 L 66.825 4.466 L 66.825 1.838 L 56.025 1.838 L 56.025 16.977 L 67.062 16.977 L 67.062 14.349 L 59.462 14.349 Z M 86.587 14.349 L 79.975 14.349 L 79.975 1.838 L 76.537 1.838 L 76.537 16.977 L 86.587 16.977 Z M 105.088 1.838 L 91.325 1.838 L 91.325 4.466 L 96.475 4.466 L 96.475 16.977 L 99.925 16.977 L 99.925 4.466 L 105.088 4.466 Z M 125 16.977 L 121.412 16.977 L 119.912 13.189 L 113.675 13.189 L 112.175 16.977 L 108.825 16.977 L 115.237 1.777 L 118.7 1.777 Z M 118.938 10.647 L 116.8 5.268 L 114.65 10.647 Z" fill="rgb(255,255,255)"></path></svg>
