<svg xmlns="http://www.w3.org/2000/svg" width="85" height="18" fill="none"><path d="M 8.947 0 L 8.947 3.09 L 6.979 3.09 C 1.193 3.09 0 7.44 0 10.59 C 0 12.87 0.686 14.88 1.939 16.2 C 3.012 17.34 4.444 17.94 6.114 17.94 C 7.247 17.94 8.172 17.73 8.947 17.31 L 8.977 17.61 L 12.795 17.61 L 12.795 0 Z M 3.639 10.47 C 3.639 8.97 4.056 6.45 6.83 6.27 C 7.218 6.24 8.232 6.18 8.947 6.15 L 8.947 13.86 C 8.44 14.19 7.665 14.46 6.77 14.49 C 5.905 14.52 5.16 14.25 4.653 13.77 C 3.996 13.11 3.639 12 3.639 10.47 M 22.786 14.52 C 20.728 14.49 19.625 13.38 19.267 11.43 L 28.542 11.43 L 28.542 11.28 C 28.572 9.96 28.542 8.85 28.512 8.37 C 28.363 6.72 27.767 5.34 26.782 4.35 C 25.679 3.24 24.158 2.7 22.219 2.7 C 20.012 2.7 18.193 3.54 16.94 5.07 C 15.837 6.45 15.24 8.37 15.24 10.53 C 15.24 14.1 17.239 17.91 22.846 17.91 C 24.993 17.91 27.081 17.25 28.304 16.65 L 28.304 13.08 C 27.647 13.44 25.589 14.55 22.786 14.52 M 22.219 6 C 23.651 6 24.635 7.02 24.725 8.28 L 19.356 8.28 C 19.744 6.9 20.698 6 22.219 6 M 40.144 9 L 40.144 17.61 L 43.991 17.61 L 43.991 8.43 C 43.991 4.59 42.232 2.73 38.593 2.73 C 37.37 2.73 35.968 3.18 35.461 3.39 L 35.432 3.09 L 31.614 3.09 L 31.614 17.61 L 35.461 17.61 L 35.461 6.72 C 36.296 6.21 37.579 5.97 38.623 6.21 C 39.637 6.48 40.144 7.14 40.144 9 M 76.47 11.67 L 76.47 3.09 L 72.623 3.09 L 72.623 12.27 C 72.623 16.11 74.382 17.97 78.021 17.97 C 79.274 17.97 80.646 17.49 81.153 17.31 L 81.182 17.61 L 85 17.61 L 85 3.09 L 81.153 3.09 L 81.153 13.98 C 80.318 14.49 79.035 14.73 77.991 14.49 C 76.977 14.22 76.47 13.56 76.47 11.67 M 47.212 0 L 47.212 12.6 C 47.212 14.34 47.511 15.57 48.137 16.41 C 48.912 17.43 50.135 17.91 51.895 17.91 C 53.326 17.91 54.698 17.61 55.504 17.34 L 55.504 13.89 C 54.997 14.01 53.475 14.34 52.611 14.34 C 52.044 14.34 51.656 14.22 51.418 13.98 C 51.06 13.62 51.06 13.02 51.06 12.42 L 51.06 6.27 C 52.581 6.27 54.46 6.36 55.504 6.48 L 55.504 3.09 L 51.06 3.09 L 51.06 0 Z M 69.372 10.56 C 68.596 9.48 67.433 8.94 65.256 8.52 C 64.361 8.34 63.288 8.16 62.661 7.83 C 62.363 7.68 62.214 7.44 62.214 7.17 C 62.214 6.93 62.393 6.69 62.632 6.54 C 63.198 6.24 64.212 6.09 65.763 6.36 C 67.254 6.63 68.895 7.2 69.402 7.44 L 69.402 3.93 C 67.612 3.03 66.032 2.7 64.272 2.73 C 62.632 2.76 61.2 3.18 60.126 3.99 C 59.023 4.83 58.396 6.03 58.337 7.47 C 58.218 9.87 59.739 11.31 63.198 12 C 63.944 12.15 64.958 12.36 65.405 12.54 C 65.853 12.72 66.121 13.02 66.121 13.35 C 66.121 13.68 65.912 13.98 65.525 14.13 C 64.868 14.4 63.825 14.37 63.139 14.28 C 61.17 14.07 59.261 13.38 58.575 13.05 L 58.575 16.65 C 59.739 17.25 61.588 17.94 63.795 17.91 C 66.3 17.85 69.432 17.13 69.998 13.77 C 70.207 12.57 69.998 11.46 69.372 10.56" fill="rgb(255, 255, 255)"></path></svg>