<svg xmlns="http://www.w3.org/2000/svg" width="126" height="26" fill="none"><g><g><g><g><g transform="translate(38.382 7.66)"><path d="M 0 12.013 L 0 0.044 L 3.262 0.044 L 7.417 8.988 L 11.483 0.044 L 14.655 0.044 L 14.655 12.013 L 11.93 12.013 L 11.93 5.042 L 8.847 12.013 L 5.943 12.013 L 2.815 5.086 L 2.815 12.013 L 0 12.013" fill="rgb(255,255,255)"></path><path d="M 25.513 7.365 L 23.234 2.28 L 21.045 7.365 Z M 19.034 12.013 L 15.862 12.013 L 21.313 0.044 L 25.2 0.044 L 30.696 12.013 L 27.568 12.013 L 26.496 9.645 L 20.062 9.645 Z" fill="rgb(255,255,255)"></path><path d="M 31.992 12.013 L 31.992 0.044 L 43.698 0.044 L 43.698 2.411 L 34.806 2.411 L 34.806 4.779 L 42.447 4.779 L 42.447 7.146 L 34.806 7.146 L 34.806 9.601 L 43.743 9.601 L 43.743 12.013 L 31.992 12.013" fill="rgb(255,255,255)"></path><path d="M 48.881 5.524 L 55.047 5.524 L 55.047 2.411 L 48.881 2.411 Z M 46.021 12.013 L 46.021 0.044 L 55.851 0.044 C 57.147 0.044 57.906 0.789 57.906 2.061 L 57.906 6.094 C 57.906 7.015 57.057 7.848 55.449 7.848 L 55.181 7.848 L 58.04 12.013 L 54.868 12.013 L 52.143 7.935 L 48.881 7.935 L 48.881 12.013 Z" fill="rgb(255,255,255)"></path><path d="M 63.089 12.013 L 62.106 12.013 C 60.855 12.013 60.23 11.311 60.23 10.259 L 60.23 8.681 L 63.089 8.681 L 63.089 9.601 L 69.166 9.601 L 69.166 7.146 L 62.196 7.146 C 61.079 7.146 60.274 6.401 60.274 5.393 L 60.274 1.841 C 60.274 0.745 61.168 0 62.196 0 L 70.149 0 C 71.221 0 71.981 0.789 71.981 1.929 L 71.981 3.376 L 69.166 3.376 L 69.166 2.411 L 63.089 2.411 L 63.089 4.779 L 70.015 4.779 C 71.043 4.779 71.981 5.436 71.981 6.708 L 71.981 10.127 C 71.981 11.311 71.311 12.013 70.06 12.013 L 63.089 12.013" fill="rgb(255,255,255)"></path><path d="M 74.751 12.013 L 74.751 0.044 L 77.655 0.044 L 77.655 4.823 L 83.196 0.044 L 87.172 0.044 L 80.56 5.612 L 87.396 12.013 L 83.33 12.013 L 77.655 6.576 L 77.655 12.013 L 74.751 12.013" fill="rgb(255,255,255)"></path></g><g><path d="M 3.172 0 L 23.234 0 C 24.977 0 26.406 1.403 26.406 3.113 L 26.406 24.113 C 26.406 25.823 24.977 27.226 23.234 27.226 L 3.172 27.226 C 1.43 27.226 0 25.823 0 24.113 L 0 3.113 C 0 2.28 0.313 1.491 0.938 0.921 C 1.564 0.351 2.323 0 3.172 0 Z M 17.426 12.846 L 22.653 6.489 L 15.102 9.996 L 13.226 2.061 L 11.349 9.996 L 3.798 6.489 L 9.026 12.846 L 1.474 16.397 L 9.83 16.397 L 7.998 24.332 L 13.226 17.975 L 18.453 24.332 L 16.577 16.397 L 24.977 16.397 Z" fill="rgb(255, 255, 255)"></path></g></g></g></g></g></svg>
