<svg version="1.1" id="Layer_1" xmlns="http://www.w3.org/2000/svg" x="0" y="0" viewBox="0 0 171.5 53.3" style="enable-background:new 0 0 171.5 53.3" xml:space="preserve"><style>.st0{fill:#47a0e7}</style><path class="st0" d="M2.5 2.5C2.5 2.1 1.4 1 1 1H0V0h5.8l6 15.1h.1L18.2 0h5.2v1h-1c-.4 0-1.5 1.1-1.5 1.5v15c0 .4 1.2 1.5 1.5 1.5h1v1h-7.7v-1h1c.4 0 1.5-1.1 1.5-1.5V2.9L11 20.3 3.7 2.6v14.8c0 .4 1.2 1.5 1.5 1.5h1v1H0v-1h1c.4 0 1.5-1.1 1.5-1.5V2.5zm29.4 8.9c.4-2 0-3.8-2.2-3.8-2.6 0-3.8 2.1-3.8 5.1 0 2.9 1.8 5.3 4.8 5.3 2.2 0 3.2-.8 4.1-2.3h.8c-.8 2.8-2.6 4.6-5.8 4.6-3.6 0-5.9-3.1-5.9-6.7 0-4.2 2.8-6.9 6.2-6.9 2 0 3.4.6 4.6 1.8l-1.9 2.9h-.9zM58 3.9c1 0 1.7-.7 1.7-1.7S58.9.6 58 .6c-1 0-1.7.6-1.7 1.6S57 3.9 58 3.9"/><path class="st0" d="M76.3 19c-.4 0-1.4-.9-1.4-1.4v-7.2c0-2.2-1.6-3.7-3.6-3.7-2.3 0-3.5 1.3-5.1 2.9L65.7 7h-4.1v1h.8c.4 0 1.4 1 1.4 1.4v8.3c0 .4-1 1.4-1.4 1.4h-1.6c-.4 0-1.4-.9-1.4-1.4V7h-4.6v1h.8c.4 0 1.4.9 1.4 1.3v8.3c0 .4-1 1.4-1.4 1.4h-1.5c-.4 0-2-1.2-2.4-1.7l-7-9.3 4.9-5.2c.3-.3 2.2-1.8 2.6-1.8h1V0H46v1h1c.4 0 1.5 1.4 1.2 1.7l-7.1 8V2.5c0-.4 1.2-1.5 1.5-1.5h1V0h-7.8v1h1c.4 0 1.5 1.1 1.5 1.5v15c0 .4-1.2 1.5-1.5 1.5h-1v1h7.8v-1h-1c-.4 0-1.5-1.1-1.5-1.5v-5.3l2-2.2L50 20h18.6v-1h-.7c-.4 0-1.4-.9-1.4-1.4V11c0-.9 2.4-2.7 4.2-2.7 1.4 0 2.1 1 2.1 2.2v7.1c0 .4-1 1.4-1.4 1.4h-.7v1H77v-1h-.7zm2.4-3.6c0 1.2 1.8 3.8 4.6 3.8 1.6 0 2.5-.6 2.5-1.8 0-1.5-1.3-1.9-2.4-2.4-.9-.4-1.6-.7-2.7-1.2-1.6-.7-2.7-1.8-2.7-3.5 0-2.3 1.4-3.7 3.9-3.7 1.4 0 2.2.7 3.2.7.4 0 .6-.1.7-.4h.7v4h-.8c0-1.1-1.5-3.3-3.9-3.3-1.5 0-2.2.7-2.2 1.7 0 1.1.8 1.5 2.1 2.1 1 .4 1.7.7 2.8 1.2 1.4.5 3 1.7 3 3.8 0 2.5-1.7 3.9-4.1 3.9-1.6 0-2.6-.8-3.7-.8-.5 0-.7.1-1 .4h-.6v-4.6h.6zm9.5-1.9c0-3.8 2.6-6.8 6-6.8 2.9 0 4.6 2 4.7 4.6l.1.9-8.6.7c0 2.6 1.8 5.2 4.7 5.2 2.2 0 3.2-.8 4-2.3h.8c-.9 2.8-2.5 4.6-5.6 4.6-3.7-.1-6.1-3.3-6.1-6.9m8.5-2.1c.2-1.8-.1-3.7-2.6-3.7-2.7 0-3.8 2.2-3.8 4.2l6.4-.5zm4.5-2C101 9 99.8 8 99.5 8h-.6V7h6.9v1h-.8c-.4 0-1.2.9-1.2 1.4l3 6.9 3-6.9c0-.5-.8-1.4-1.1-1.4h-.8V7h5.2v1h-.6c-.3 0-1.2 1-1.5 1.4l-4.4 10-3.3 7.2-1.2-.5 3.5-7.1-4.4-9.6zM38.6 30.3c0 1.6 1.1 2.9 2.8 3.5 2.6 2.8 5.7 5.7 8.4 8.1.8-1.3 1-2.6 1-4.3 0-1.8-1.2-2.9-3.2-3v-1h7.1v1H54c-.4 0-1.8 1.6-1.8 2.2-.1 1.7-.5 3.8-1.8 5.6 1.5 1.3 2.9 2.4 4.1 3.2h1.2v1h-2.2c-1.9 0-3.3-.5-5-2-1.6 1.5-3.6 2.4-6.6 2.4-3.2 0-6.3-2.4-6.3-5.9 0-2.8 1.4-4.8 3.2-6.1-1-1.2-1.6-2.4-1.6-4.2 0-2.9 1.9-4.4 4.8-4.4 1.8 0 2.8.6 3.6.6.4 0 .7 0 .9-.4h.9v4.7h-.9c0-1.3-2-4-4.6-4-2 .1-3.3 1.2-3.3 3m-.9 9.6c0 2.9 3 5.6 5.9 5.6 1.8 0 3.2-.5 4.3-1.3-2.9-2.5-6.1-5.6-8.6-8.5-1 1-1.6 2.1-1.6 4.2m38.5-6.1c0-2.1-2.3-6.2-6.1-6.2-3.5 0-5.5 1.9-5.9 6.4-.1 1.8-.1 3.3.1 5.1.3 3.5 2.7 6.4 6.8 6.4 3.5 0 5.1-1.5 6.4-4.1h1c-1.3 3.6-4.1 5.7-8.1 5.7-5.7 0-9.4-4.7-9.4-10.4s3.3-10.3 8.9-10.3c2.1 0 3.5.9 5 .9.6 0 .9-.2 1.2-.5h.9v7.1h-.8zm3.7 6.4c0-4.2 3-6.8 6.4-6.8 3.4 0 6.4 2.6 6.4 6.8 0 4.2-3 6.9-6.4 6.9-3.4 0-6.4-2.7-6.4-6.9m10.3 2.2c.2-1.3.2-3.1 0-4.4-.2-2.1-1.4-3.5-3.8-3.5-2.3 0-3.5 1.4-3.8 3.5-.2 1.3-.2 3.1 0 4.4.3 2 1.4 3.5 3.8 3.5 2.4-.1 3.6-1.5 3.8-3.5m23.6 1.9c0 .4 1 1.4 1.4 1.4h.6v1h-6.5v-1h.7c.4 0 1.4-.9 1.4-1.4v-7.2c0-1.3-.6-2.1-2-2.1-1.7 0-3.8 1.6-3.8 2.5v6.8c0 .4 1 1.4 1.4 1.4h.7v1h-6.6v-1h.7c.4 0 1.4-.9 1.4-1.4v-7.2c0-1.3-.7-2.1-2.1-2.1-1.7 0-3.8 1.7-3.8 2.6v6.7c0 .4 1 1.4 1.4 1.4h.7v1h-6.6v-1h.7c.4 0 1.4-.9 1.4-1.4V36c0-.4-1-1.4-1.4-1.4h-.7v-1h4l.5 2.5c1.5-1.6 2.4-2.8 4.7-2.8 1.7 0 3.2.9 3.4 2.7 1.6-1.6 2.6-2.7 4.8-2.7 1.9 0 3.5 1.3 3.5 3.7v7.3z"/><path class="st0" d="m119.6 33.7.4 2.7c1.1-2.1 2.5-3 4.7-3 3.2 0 5.1 2.7 5.1 6.6s-2.2 7-5.3 7c-2.3 0-3.5-.9-4.4-2.6v6.2c0 .4 1 1.4 1.4 1.4h.9v1h-6.9v-1h.9c.4 0 1.4-.9 1.4-1.4V36.1c0-.4-1-1.4-1.4-1.4h-.9v-1h4.1zm.5 4.7v3.4c0 2 1.6 3.8 3.8 3.8 2.2 0 3.3-1.4 3.5-3.5.2-1.2.2-2.7 0-3.9-.3-2.1-1.4-3.4-3.3-3.4-2.2.1-3.4 1.6-4 3.6m37.9 7.3c-.4 0-1.4-.9-1.4-1.4v-7.2c0-2.2-1.6-3.7-3.6-3.7-2.3 0-3.5 1.3-5.1 2.9l-.5-2.7h-4.1v1h.8c.4 0 1.4 1 1.4 1.4v8.3c0 .4-1 1.4-1.4 1.4h-1.6c-.4 0-1.4-.9-1.4-1.4v-7.1c0-2.6-2.1-3.9-4.9-3.9-2.6 0-4.1.9-5.2 2l1.7 2.6h.9c-1-2.2-.2-3.6 2-3.6 2.3 0 3.1 1 3 2.9v1.6l-3.3.7c-1.8.4-4.2 1.3-4.2 3.9 0 2.1 1.5 3.5 3.3 3.5 1.9 0 3.3-1.5 4.3-2.9l.3 2.6h11v-1h-.7c-.4 0-1.4-.9-1.4-1.4v-6.6c0-.9 2.4-2.7 4.2-2.7 1.4 0 2.1 1 2.1 2.2v7.1c0 .4-1 1.4-1.4 1.4h-.8v1h6.6v-1h-.6zm-19.3-2.8c-.5 1-1.9 2.3-3.2 2.3-1.3 0-2.1-1-2.1-2.1 0-1.3.5-2.2 2.2-2.6l3.1-.8v3.2zm20.9-6.7c-.2-.4-1.3-1.5-1.7-1.5h-.6v-1h6.9v1h-.8c-.4 0-1.2.9-1.2 1.4l3 6.9 3-6.9c0-.5-.8-1.4-1.1-1.4h-.8v-1h5.2v1h-.6c-.3 0-1.2 1-1.5 1.4l-4.4 10-3.3 7.2-1.2-.5 3.5-7.1-4.4-9.5z"/></svg>
