<svg xmlns="http://www.w3.org/2000/svg" viewBox="0 0 294.2 65" style="enable-background:new 0 0 294.2 65" xml:space="preserve"><path d="M200.7 0h11.6v64.5h-11.6V0zm93.5 27.2v-10h-11.9v-13h-11.6v47.5c0 4.4 1.1 7.7 3.3 9.9 2.2 2.2 5.5 3.3 10 3.3h10.2v-10h-7.5c-1.6 0-2.8-.4-3.5-1.1-.6-.6-1-2.3-1-4.1V27.2h12zm-172 24.7 11.9-34.8h12.1L129 64.4h-13.7L98.1 17.2h12.1l12 34.7zm129.7-11.1c0 3-.5 5.6-1.3 7.7-.9 2.1-2.2 3.8-3.8 4.9-1.6 1.1-3.6 1.6-5.9 1.6-3.3 0-5.8-1.1-7.4-3.2-1.6-2.2-2.5-5.4-2.5-9.7v-25h-11.6v26.2c0 4.1.5 7.6 1.5 10.3 1 2.8 2.4 5 4.1 6.7 1.7 1.7 3.7 2.9 6 3.6 2.2.7 4.6 1.1 7.1 1.1 3.6 0 6.6-.7 8.9-1.9 2.1-1.2 3.8-2.6 5.2-4.1l1 5.5h10.1V17.2h-11.6v23.6zM183 19.6c-3.6-2-8-3-12.8-3-4.8 0-9.1 1-12.8 3-3.7 2-6.6 4.9-8.6 8.5-2 3.6-3 7.9-3 12.7 0 4.8 1 9 3 12.6 2 3.6 4.9 6.5 8.6 8.5 3.7 2 8 3 12.8 3 4.9 0 9.2-1 12.8-3 3.6-2 6.5-4.9 8.5-8.5 2-3.6 3-7.9 3-12.6 0-4.8-1-9.1-3-12.7-1.9-3.6-4.8-6.4-8.5-8.5zm-6.1 33.8c-1.9 1.2-4.1 1.8-6.7 1.8-2.6 0-4.8-.6-6.7-1.8-1.9-1.2-3.4-2.9-4.4-5.1-1-2.2-1.6-4.7-1.6-7.5 0-2.9.5-5.4 1.6-7.5 1-2.1 2.5-3.9 4.4-5.1 1.9-1.2 4.1-1.9 6.7-1.9 2.6 0 4.9.6 6.7 1.9 1.9 1.2 3.3 3 4.4 5.1 1 2.1 1.6 4.7 1.6 7.5s-.5 5.3-1.6 7.5c-1 2.2-2.5 3.9-4.4 5.1zM12 15.9H0v48.5h12V15.9zm37.7 2.8C49.7 8.4 41.3 0 31 0H0v10.4h29.5c4.7 0 8.5 3.7 8.6 8.2 0 2.3-.8 4.4-2.4 6-1.6 1.5-3.7 2.4-5.9 2.4H18.3c-.4 0-.7.3-.7.7V37c0 .2 0 .3.1.4l19.5 27h14.3L31.9 37.3c9.8-.4 17.8-8.7 17.8-18.6zm36.9.7c-3.5-1.8-7.6-2.8-12.2-2.8s-8.8 1-12.3 3c-3.6 2-6.3 4.9-8.3 8.5-2 3.6-2.9 7.9-2.9 12.8 0 4.8 1 9 3 12.6 2 3.6 4.9 6.5 8.5 8.4 3.7 2 8.1 3 13.1 3 4 0 7.5-.7 10.6-2.2 3.1-1.5 5.6-3.5 7.4-6 1.8-2.4 3-5 3.6-7.9l.1-.3H85.5l-.1.2c-.6 2.2-1.9 3.9-3.6 5.1-1.9 1.3-4.3 2-7 2-2.3 0-4.4-.5-6.2-1.5-1.8-1-3.2-2.4-4.2-4.1-1-1.8-1.5-3.9-1.7-6.3v-.4h34.7v-.2c.1-.7.2-1.4.2-2v-2c-.1-4.6-1.1-8.6-3-12-1.8-3.5-4.6-6.1-8-7.9zm-4.2 8.9c2 1.7 3.2 4 3.7 7H63.2c.3-1.9.9-3.6 1.9-5 1.1-1.5 2.4-2.6 4.1-3.4 1.6-.8 3.4-1.2 5.3-1.2 3.2 0 5.8.9 7.9 2.6z" style="fill-rule:evenodd;clip-rule:evenodd;fill:#1e1e1e"/></svg>