<svg xmlns="http://www.w3.org/2000/svg" width="131" height="14" fill="none"><path d="M 9.481 9.817 C 9.514 12.5 7.27 13.9 4.716 13.917 C 2.178 13.933 0.786 13.05 0 11.85 C 0.213 11.417 0.819 10.167 0.819 10.167 L 1.048 10.167 C 1.081 11.65 1.834 12.233 2.587 12.583 C 3.602 13.05 5.289 13 6.255 12.617 C 7.532 12.117 7.745 11.2 7.663 10.183 C 7.565 8.95 6.222 8.167 4.339 7.517 C 3.799 7.333 2.26 6.85 1.294 5.967 C 0.426 5.167 0.262 4.3 0.377 3.267 C 0.557 1.817 1.605 0.783 2.964 0.333 C 4.077 -0.033 5.191 0 5.895 0.117 C 6.632 0.25 7.172 0.45 7.696 0.767 C 8.057 0.983 8.499 1.417 8.728 1.717 C 8.466 2.25 8.007 3.2 8.007 3.2 L 7.795 3.2 C 7.762 2.4 7.32 1.1 4.945 1.05 C 3.242 1.017 2.08 1.883 1.949 2.883 C 1.818 3.833 2.162 4.233 2.718 4.617 C 3.963 5.467 5.387 5.8 6.435 6.25 C 8.859 7.3 9.465 8.617 9.481 9.817 M 22.81 5.8 L 15.245 5.8 L 15.245 0.25 L 13.362 0.25 L 13.362 13.683 L 15.245 13.683 L 15.245 7.117 L 22.81 7.117 L 22.81 13.683 L 24.693 13.683 L 24.693 0.25 L 22.81 0.25 Z M 35.108 0 L 34.044 0 L 28.64 13.683 L 30.048 13.683 L 31.964 8.667 L 36.745 8.667 L 38.809 13.683 L 40.856 13.683 Z M 32.423 7.45 L 34.191 2.8 L 34.322 2.8 L 36.238 7.45 Z M 125.171 0 L 124.106 0 L 118.702 13.683 L 120.111 13.683 L 122.027 8.667 L 126.808 8.667 L 128.871 13.683 L 130.918 13.683 Z M 122.485 7.45 L 124.253 2.8 L 124.384 2.8 L 126.3 7.45 Z M 56.346 13.933 L 56.346 0.25 L 54.889 0.25 L 54.889 10.25 C 53.514 8.833 46.849 1.5 45.506 0.017 L 44.704 0.017 L 44.704 13.7 L 46.145 13.7 L 46.145 3.5 C 48.798 6.383 53.366 11.267 55.56 13.933 Z M 73.295 7.417 L 69.315 7.417 L 69.315 8.617 L 71.493 8.617 L 71.493 12.433 C 70.069 13.167 67.383 13.217 65.877 12.433 C 63.388 11.167 62.946 8.833 63.027 6.467 C 63.109 4.167 64.239 1.2 67.989 0.95 C 70.216 0.8 71.69 1.783 72.59 2.817 L 72.836 2.817 L 73.442 1.183 C 70.642 -0.3 67.236 -0.267 64.96 0.633 C 61.357 2.067 60.882 5.567 60.964 7.383 C 61.177 11.867 64.01 13.85 68.005 13.95 C 69.332 13.983 71.804 13.633 73.295 13.05 Z M 86.722 11.817 C 86.296 11.25 85.199 9.517 84.937 9.083 C 84.462 8.317 84.135 7.7 83.594 7.417 C 85.199 7.233 86.804 6 86.804 3.783 C 86.804 1.833 85.215 0.267 82.595 0.267 L 78.174 0.267 L 78.174 13.7 L 80.041 13.7 L 80.041 7.85 C 81.433 7.817 82.071 7.85 82.71 8.817 C 83.349 9.8 84.61 11.683 85.15 12.5 C 85.69 13.317 86.198 13.583 86.656 13.767 C 87.115 13.967 88.359 14.017 88.9 13.65 L 88.9 12.783 C 87.77 13.05 87.148 12.383 86.722 11.817 Z M 81.859 6.8 L 80.057 6.8 L 80.057 1.283 L 81.842 1.283 C 84.004 1.283 84.855 2.767 84.855 3.85 C 84.855 4.867 84.511 5.467 84.053 5.933 C 83.676 6.333 83.038 6.8 81.859 6.8 Z M 92.175 0.25 L 94.074 0.25 L 94.074 13.683 L 92.175 13.683 Z M 116.001 12.133 C 114.461 12.6 110.793 12.55 110.793 12.55 L 110.793 0.25 L 108.894 0.25 L 108.894 13.683 L 116.001 13.683 Z M 105.226 7.817 C 103.408 7.15 102.246 6.317 101.689 5.25 L 101.541 5.167 L 101.394 5.25 C 100.706 6.383 99.74 7.083 97.841 7.817 L 97.742 8 L 97.906 8.133 L 105.177 8.133 L 105.34 7.983 Z" fill="rgb(255, 255, 255)"></path></svg>
