<svg xmlns="http://www.w3.org/2000/svg" viewBox="0 0 272.7 42" style="enable-background:new 0 0 272.7 42" xml:space="preserve"><path d="M23.4 25.9c.4-.4.4-1 0-1.4 0 0-7-7.1-7.1-7.1-.2-.1-.3-.4-.3-.6 0-.3.1-.5.3-.7L30.7 1.7c.2-.2.3-.4.3-.7 0-.5-.4-.9-.9-.9H16c-.3 0-.5.1-.7.3L.8 14.9c-.5.5-.8 1.1-.8 1.9 0 .8.3 1.4.8 1.9L15 32.9c.4.4 1 .4 1.4 0l7-7zm9.6-9.8c-.4.4-.4 1 0 1.4l7.1 7.1c.2.2.3.4.3.7 0 .3-.1.5-.3.7L25.7 40.3c-.2.2-.3.4-.3.7 0 .5.4.9.9.9h14.1c.3 0 .5-.1.7-.3L55.7 27c.5-.5.8-1.2.8-1.9 0-.8-.3-1.4-.8-1.9L41.4 9.1c-.4-.4-1-.4-1.4 0l-7 7zm56.9-5.4c-2.4-.8-6.1-1.5-9.2-1.5-5.7 0-9.3 2.7-9.3 7.2 0 4 2.4 5.7 7.5 6.7.3.1.6.1.9.2 2.5.5 4.6.9 4.6 2.6 0 1.3-1.3 2-3.7 2-2 0-5-.6-8.7-2l-1.3 5c3.6 1.3 7.3 2 10.2 2 5.8 0 9.6-2.5 9.6-7.4 0-4.4-3.1-5.9-7.8-6.9-.2 0-.4-.1-.6-.1-2.8-.6-4.4-.9-4.4-2.3s1.2-2 3.2-2 4.8.5 8 1.5l1-5zm7.1-.9c2.7-.1 5.7-.3 8.8-.3 6 0 9.9 2.8 9.9 8.1 0 5.2-3.9 8.5-10 8.5h-3.2v6.1H97V9.8zm5.7 4.4v7h3.5c2.3 0 4-1.3 4-3.5 0-2.3-1.6-3.5-4-3.5h-3.5zm58.5-4.4v13l-10.6-13h-5.2v22.5h5.6V19.4l10.6 12.9h5.2V9.8h-5.6zm13.1 0c2.5-.1 5.3-.3 8.5-.3 7.4 0 12.4 4.2 12.4 11.4s-5 11.7-11.9 11.7c-3.4 0-6.6-.1-9.1-.3V9.8zm5.6 17.6c1.2.1 2.4.1 3.6.1 3.3 0 5.9-2.5 5.9-6.6 0-4-2.6-6.3-6.4-6.3-1 0-2.1 0-3.1.1v12.7zM244 10.7c-2.4-.8-6.1-1.5-9.2-1.5-5.7 0-9.3 2.7-9.3 7.2 0 4 2.4 5.7 7.5 6.7.3.1.6.1.9.2 2.5.5 4.6.9 4.6 2.6 0 1.3-1.3 2-3.7 2-2 0-5-.6-8.7-2l-1.3 5c3.6 1.3 7.3 2 10.2 2 5.8 0 9.6-2.5 9.6-7.4 0-4.4-3.1-5.9-7.8-6.9-.2 0-.4-.1-.6-.1-2.8-.6-4.4-.9-4.4-2.3s1.2-2 3.2-2 4.8.5 8 1.5l1-5zm16.3 13.9h-3.5v7.6h-5.6V9.8h5.7v9.3h1.1l7.5-9.3h6.9l-8.3 10.3 8.8 12.1H266l-5.7-7.6zm-133.3-6v-4.1h11.6V9.8h-17.3v22.5h17.3v-4.8H127v-4.1h9.7v-4.8H127zm80.3-4.1v4.1h9.7v4.8h-9.7v4.1h11.6v4.8h-17.3V9.8h17.3v4.8h-11.6z" style="fill-rule:evenodd;clip-rule:evenodd;fill:#fff"/></svg>