<svg version="1.1" id="Layer_1" xmlns:x="ns_extend;" xmlns:i="ns_ai;" xmlns:graph="ns_graphs;" xmlns="http://www.w3.org/2000/svg" xmlns:xlink="http://www.w3.org/1999/xlink" x="0px" y="0px" viewBox="0 0 272.7 42" style="enable-background:new 0 0 272.7 42;" xml:space="preserve">
 <style type="text/css">
  .st0{fill-rule:evenodd;clip-rule:evenodd;fill:#5D21D2;}
 </style>
 <metadata>
  <sfw xmlns="ns_sfw;">
   <slices>
   </slices>
   <sliceSourceBounds bottomLeftOrigin="true" height="42" width="272.7" x="-58.4" y="-9">
   </sliceSourceBounds>
  </sfw>
 </metadata>
 <g>
  <path class="st0" d="M23.4,25.9c0.4-0.4,0.4-1,0-1.4c0,0-7-7.1-7.1-7.1C16.1,17.3,16,17,16,16.8c0-0.3,0.1-0.5,0.3-0.7L30.7,1.7
		c0.2-0.2,0.3-0.4,0.3-0.7c0-0.5-0.4-0.9-0.9-0.9H16c-0.3,0-0.5,0.1-0.7,0.3L0.8,14.9C0.3,15.4,0,16,0,16.8c0,0.8,0.3,1.4,0.8,1.9
		L15,32.9c0.4,0.4,1,0.4,1.4,0L23.4,25.9z M33,16.1c-0.4,0.4-0.4,1,0,1.4l7.1,7.1c0.2,0.2,0.3,0.4,0.3,0.7c0,0.3-0.1,0.5-0.3,0.7
		L25.7,40.3c-0.2,0.2-0.3,0.4-0.3,0.7c0,0.5,0.4,0.9,0.9,0.9h14.1c0.3,0,0.5-0.1,0.7-0.3l14.6-14.6c0.5-0.5,0.8-1.2,0.8-1.9
		c0-0.8-0.3-1.4-0.8-1.9L41.4,9.1c-0.4-0.4-1-0.4-1.4,0L33,16.1z M89.9,10.7c-2.4-0.8-6.1-1.5-9.2-1.5c-5.7,0-9.3,2.7-9.3,7.2
		c0,4,2.4,5.7,7.5,6.7c0.3,0.1,0.6,0.1,0.9,0.2c2.5,0.5,4.6,0.9,4.6,2.6c0,1.3-1.3,2-3.7,2c-2,0-5-0.6-8.7-2l-1.3,5
		c3.6,1.3,7.3,2,10.2,2c5.8,0,9.6-2.5,9.6-7.4c0-4.4-3.1-5.9-7.8-6.9c-0.2,0-0.4-0.1-0.6-0.1l0,0h0c-2.8-0.6-4.4-0.9-4.4-2.3
		c0-1.4,1.2-2,3.2-2c2,0,4.8,0.5,8,1.5L89.9,10.7z M97,9.8c2.7-0.1,5.7-0.3,8.8-0.3c6,0,9.9,2.8,9.9,8.1c0,5.2-3.9,8.5-10,8.5h-3.2
		v6.1H97V9.8z M102.7,14.2v7h3.5c2.3,0,4-1.3,4-3.5c0-2.3-1.6-3.5-4-3.5C105,14.2,103.8,14.2,102.7,14.2z M161.2,9.8v13l-10.6-13
		h-5.2v22.5h5.6V19.4l10.6,12.9h5.2V9.8H161.2z M174.3,9.8c2.5-0.1,5.3-0.3,8.5-0.3c7.4,0,12.4,4.2,12.4,11.4
		c0,7.2-5,11.7-11.9,11.7c-3.4,0-6.6-0.1-9.1-0.3V9.8z M179.9,27.4c1.2,0.1,2.4,0.1,3.6,0.1c3.3,0,5.9-2.5,5.9-6.6
		c0-4-2.6-6.3-6.4-6.3c-1,0-2.1,0-3.1,0.1V27.4z M244,10.7c-2.4-0.8-6.1-1.5-9.2-1.5c-5.7,0-9.3,2.7-9.3,7.2c0,4,2.4,5.7,7.5,6.7
		c0.3,0.1,0.6,0.1,0.9,0.2c2.5,0.5,4.6,0.9,4.6,2.6c0,1.3-1.3,2-3.7,2c-2,0-5-0.6-8.7-2l-1.3,5c3.6,1.3,7.3,2,10.2,2
		c5.8,0,9.6-2.5,9.6-7.4c0-4.4-3.1-5.9-7.8-6.9c-0.2,0-0.4-0.1-0.6-0.1h0c-2.8-0.6-4.4-0.9-4.4-2.3c0-1.4,1.2-2,3.2-2
		c2,0,4.8,0.5,8,1.5L244,10.7z M260.3,24.6h-3.5v7.6h-5.6V9.8h5.7v9.3h1.1l7.5-9.3h6.9l-8.3,10.3l8.8,12.1h-6.9L260.3,24.6z
		 M127,18.6v-4.1h11.6V9.8h-17.3v22.5h17.3v-4.8H127v-4.1h9.7v-4.8H127z M207.3,14.5v4.1h9.7v4.8h-9.7v4.1h11.6v4.8h-17.3V9.8h17.3
		v4.8H207.3z">
  </path>
 </g>
</svg>